<?xml version="1.0" encoding="UTF-8" standalone="no"?>
<svg
   xmlns:dc="http://purl.org/dc/elements/1.1/"
   xmlns:cc="http://creativecommons.org/ns#"
   xmlns:rdf="http://www.w3.org/1999/02/22-rdf-syntax-ns#"
   xmlns:svg="http://www.w3.org/2000/svg"
   xmlns="http://www.w3.org/2000/svg"
   xmlns:sodipodi="http://sodipodi.sourceforge.net/DTD/sodipodi-0.dtd"
   xmlns:inkscape="http://www.inkscape.org/namespaces/inkscape"
   width="100%"
   height="100%"
   viewBox="0 0 372 440"
   version="1.1"
   xml:space="preserve"
   style="fill-rule:evenodd;clip-rule:evenodd;stroke-miterlimit:1.41421;"
   id="svg4447"
   inkscape:version="0.91 r"
   sodipodi:docname="hex_kolkata.svg"><metadata
     id="metadata4700"><rdf:RDF><cc:Work
         rdf:about=""><dc:format>image/svg+xml</dc:format><dc:type
           rdf:resource="http://purl.org/dc/dcmitype/StillImage" /><dc:title></dc:title></cc:Work></rdf:RDF></metadata><defs
     id="defs4698" /><sodipodi:namedview
     pagecolor="#ffffff"
     bordercolor="#666666"
     borderopacity="1"
     objecttolerance="10"
     gridtolerance="10"
     guidetolerance="10"
     inkscape:pageopacity="0"
     inkscape:pageshadow="2"
     inkscape:window-width="1366"
     inkscape:window-height="744"
     id="namedview4696"
     showgrid="false"
     inkscape:zoom="1.3840909"
     inkscape:cx="248.58114"
     inkscape:cy="248.92093"
     inkscape:window-x="0"
     inkscape:window-y="24"
     inkscape:window-maximized="1"
     inkscape:current-layer="svg4447" /><g
     id="Layer 1"
     transform="matrix(1,0,0,1,147.553,18.3364)"
     inkscape:export-xdpi="190.89999"
     inkscape:export-ydpi="190.89999"><g
       id="polygon3"
       transform="matrix(0.993195,0,0,1.02333,-661.912,-33.4114)"><path
         d="M704.9,444L519.3,336.9L519.3,122.6L704.9,15.4L890.4,122.6L890.4,336.9L704.9,444Z"
         style="fill:rgb(255,234,0);fill-rule:nonzero;"
         id="path4451" /></g><path
       id="path393"
       d="M113.593,347.148C113.093,346.248 111.893,345.948 111.093,346.448L44.793,384.748L72.993,348.748C73.593,347.948 73.493,346.748 72.693,346.148C71.893,345.548 70.693,345.648 70.093,346.448L39.293,385.748L39.293,347.348C39.293,346.348 38.493,345.448 37.393,345.448C36.293,345.448 35.493,346.248 35.493,347.348L35.493,385.748L4.693,346.448C4.093,345.648 2.893,345.548 2.093,346.148C1.293,346.748 1.193,347.948 1.793,348.748L29.993,384.748L-37.607,345.748C-38.507,345.248 -39.607,345.548 -40.107,346.448C-40.607,347.348 -40.307,348.448 -39.407,348.948L36.493,392.748L36.593,392.748C36.693,392.748 36.693,392.848 36.793,392.848L37.093,392.848C37.193,392.848 37.393,392.948 37.493,392.948C37.693,392.948 37.793,392.948 37.893,392.848L38.093,392.848C38.193,392.848 38.193,392.748 38.293,392.748L38.393,392.748L113.093,349.648C113.793,349.248 114.093,348.048 113.593,347.148L113.593,347.148Z"
       style="fill:rgb(28,23,24);fill-rule:nonzero;" /><g
       id="circle395"
       transform="matrix(1,0,0,1,-667.707,-23.0521)"><circle
         cx="786.3"
         cy="366.7"
         r="2.3"
         style="fill:rgb(28,23,24);"
         id="circle4455" /></g><g
       id="circle397"
       transform="matrix(1,0,0,1,-667.707,-23.0521)"><circle
         cx="622.8"
         cy="366.7"
         r="2.3"
         style="fill:rgb(28,23,24);"
         id="circle4458" /></g><g
       transform="matrix(1,0,0,1,-1.15163,225.469)"
       id="g4460"><path
         id="path407"
         d="m 172.74539,-119.42029 c 0.8,0 1.4,-0.6 1.4,-1.4 l 0,-7.1 5.8,7.6 c 0.4,0.5 0.8,0.9 1.5,0.9 l 0.1,0 c 0.8,0 1.5,-0.6 1.5,-1.5 l 0,-10.5 c 0,-0.8 -0.6,-1.4 -1.4,-1.4 -0.8,0 -1.4,0.6 -1.4,1.4 l 0,6.8 -5.6,-7.4 c -0.4,-0.5 -0.8,-0.9 -1.5,-0.9 l -0.3,0 c -0.8,0 -1.5,0.6 -1.5,1.5 l 0,10.5 c 0,0.9 0.6,1.5 1.4,1.5 l 0,0 z"
         style="fill:#1c1718;fill-rule:nonzero"
         inkscape:connector-curvature="0" /><path
         id="path409"
         d="m 176.91697,-98.65085 c 4.1,0 7.1,-3.1 7.1,-6.8 0,-3.8 -2.9,-6.8 -7,-6.8 -4.1,0 -7.1,3.1 -7.1,6.8 0,3.8 2.9,6.8 7,6.8 l 0,0 z m -3.9,-6.8 c 0,-2.3 1.6,-4.1 4,-4.1 2.3,0 4,1.9 4,4.2 0,2.3 -1.6,4.1 -4,4.1 -2.4,-0.1 -4,-1.9 -4,-4.2 l 0,0 z"
         style="fill:#1c1718;fill-rule:nonzero"
         inkscape:connector-curvature="0" /><path
         id="path411"
         d="m 172.84456,-79.89847 3.7,0 c 4.2,0 7,-2.9 7,-6.6 0,-3.7 -2.9,-6.6 -7,-6.6 l -3.7,0 c -0.8,0 -1.5,0.6 -1.5,1.5 l 0,10.2 c 0.1,0.9 0.7,1.5 1.5,1.5 l 0,0 z m 1.5,-10.6 2.2,0 c 2.4,0 4,1.6 4,4 0,2.3 -1.6,4 -4,4 l -2.2,0 0,-8 0,0 z"
         style="fill:#1c1718;fill-rule:nonzero"
         inkscape:connector-curvature="0" /><path
         id="path413"
         d="m 173.19464,-60.223593 7.4,0 c 0.7,0 1.3,-0.6 1.3,-1.3 0,-0.7 -0.6,-1.3 -1.3,-1.3 l -6,0 0,-2.8 5,0 c 0.7,0 1.3,-0.6 1.3,-1.3 0,-0.7 -0.6,-1.3 -1.3,-1.3 l -5,0 0,-2.7 5.9,0 c 0.7,0 1.3,-0.6 1.3,-1.3 0,-0.7 -0.6,-1.3 -1.3,-1.3 l -7.3,0 c -0.8,0 -1.5,0.6 -1.5,1.5 l 0,10.3 c 0.1,0.9 0.7,1.5 1.5,1.5 z"
         style="fill:#1c1718;fill-rule:nonzero"
         inkscape:connector-curvature="0" /><path
         id="path415"
         d="m 171.89739,-41.890071 c 1.5,1.1 3.2,1.6 5,1.6 2.9,0 4.9,-1.5 4.9,-4.1 0,-2.3 -1.5,-3.3 -4.2,-4 -2.3,-0.6 -2.9,-0.9 -2.9,-1.7 0,-0.6 0.6,-1.2 1.7,-1.2 0.9,0 1.8,0.3 2.8,0.9 0.2,0.1 0.5,0.2 0.7,0.2 0.8,0 1.4,-0.6 1.4,-1.3 0,-0.6 -0.3,-1 -0.6,-1.2 -1.2,-0.8 -2.6,-1.2 -4.2,-1.2 -2.7,0 -4.6,1.6 -4.6,4 0,2.6 1.7,3.4 4.4,4 2.2,0.6 2.7,0.9 2.7,1.7 0,0.8 -0.7,1.2 -1.9,1.2 -1.3,0 -2.4,-0.5 -3.4,-1.2 -0.2,-0.1 -0.5,-0.3 -0.8,-0.3 -0.8,0 -1.4,0.6 -1.4,1.3 -0.2,0.7 0.1,1.1 0.4,1.3 l 0,0 z"
         style="fill:#1c1718;fill-rule:nonzero"
         inkscape:connector-curvature="0" /><path
         id="path417"
         d="m 176.85903,-22.278629 c 2.1,0 3.5,-0.6 4.7,-1.7 0.3,-0.200001 0.5,-0.600001 0.5,-1.000001 0,-0.7 -0.6,-1.3 -1.4,-1.3 -0.3,0 -0.6,0.1 -0.9,0.3 -0.8,0.7 -1.6,1 -2.9,1 -2.3,0 -3.8,-1.9 -3.8,-4.2 0,-2.3 1.6,-4.1 3.8,-4.1 1,0 1.9,0.3 2.7,0.9 0.2,0.1 0.5,0.3 0.9,0.3 0.8,0 1.4,-0.6 1.4,-1.4 0,-0.5 -0.3,-0.9 -0.6,-1.2 -1.1,-0.8 -2.4,-1.3 -4.4,-1.3 -4.1,0 -6.9,3.1 -6.9,6.8 0.2,3.900001 3.1,6.900001 6.9,6.900001 l 0,0 z"
         style="fill:#1c1718;fill-rule:nonzero"
         inkscape:connector-curvature="0" /><path
         id="path419"
         d="m 171.85434,-2.497768 c 0.8,0 1.5,-0.6 1.5,-1.5 l 0,-4 5.4,0 0,4 c 0,0.8 0.6,1.5 1.5,1.5 0.8,0 1.5,-0.6 1.5,-1.5 l 0,-10.5 c 0,-0.8 -0.6,-1.5 -1.5,-1.5 -0.8,0 -1.5,0.6 -1.5,1.5 l 0,3.9 -5.4,0 0,-3.9 c 0,-0.8 -0.6,-1.5 -1.5,-1.5 -0.8,0 -1.5,0.6 -1.5,1.5 l 0,10.5 c 0,0.9 0.6,1.5 1.5,1.5 l 0,0 z"
         style="fill:#1c1718;fill-rule:nonzero"
         inkscape:connector-curvature="0" /><path
         id="path421"
         d="m 175.82789,15.483093 c 4.1,0 7,-3.1 7,-6.8 0,-3.8 -2.9,-6.8 -7,-6.8 -4.1,0 -7.1,3.1 -7.1,6.8 0.1,3.8 3,6.8 7.1,6.8 z m -4,-6.8 c 0,-2.3 1.6,-4.1 4,-4.1 2.3,0 4,1.9 4,4.2 0,2.3 -1.6,4.1 -4,4.1 -2.3,-0.1 -4,-1.9 -4,-4.2 z"
         style="fill:#1c1718;fill-rule:nonzero"
         inkscape:connector-curvature="0" /><path
         id="path423"
         d="m 176.09055,34.853072 c 4.1,0 7.1,-3.1 7.1,-6.8 0,-3.8 -2.9,-6.8 -7,-6.8 -4.1,0 -7.1,3.1 -7.1,6.8 0,3.8 2.9,6.8 7,6.8 z m -4,-6.8 c 0,-2.3 1.6,-4.1 4,-4.1 2.3,0 4,1.9 4,4.2 0,2.3 -1.6,4.1 -4,4.1 -2.3,-0.1 -4,-1.9 -4,-4.2 z"
         style="fill:#1c1718;fill-rule:nonzero"
         inkscape:connector-curvature="0" /><path
         id="path425"
         d="m 173.39675,53.555697 6.8,0 c 0.7,0 1.3,-0.6 1.3,-1.3 0,-0.7 -0.6,-1.3 -1.3,-1.3 l -5.4,0 0,-9.2 c 0,-0.8 -0.6,-1.5 -1.5,-1.5 -0.8,0 -1.5,0.6 -1.5,1.5 l 0,10.3 c 0.1,0.9 0.8,1.5 1.6,1.5 l 0,0 z"
         style="fill:#1c1718;fill-rule:nonzero"
         inkscape:connector-curvature="0" /></g><g
       id="path5357"
       transform="matrix(1.65412,-0.366996,0.358211,1.69469,701.48,-19.5054)"><path
         d="M-337.148,-42.84L-287.583,2.15L-300.522,62.364L-314.697,127.762L-373.335,146.669L-437.124,167.113L-482.852,125.754L-532.417,80.764L-519.478,20.55L-505.303,-44.847L-446.665,-63.755L-382.876,-84.199L-337.148,-42.84ZM-445.249,-59.653L-501.505,-41.513L-515.16,21.482L-527.583,79.293L-479.871,122.601L-436.068,162.219L-374.751,142.567L-318.495,124.427L-304.84,61.432L-292.417,3.621L-340.129,-39.687L-383.932,-79.305L-445.249,-59.653Z"
         style="fill:black;"
         id="path4473" /></g></g><g
     style="stroke-width:7.00302982;stroke-miterlimit:4;stroke-dasharray:none"
     id="g4476"
     transform="matrix(0.25322999,0,0,0.21899779,71.545147,138.68055)"><g
       style="stroke-width:4.25083017;stroke-miterlimit:4;stroke-dasharray:none"
       transform="matrix(1.64745,0,0,1.64745,-226.194,-617.843)"
       id="path3424"><path
         inkscape:connector-curvature="0"
         id="path4479"
         style="fill:none;stroke:#000000;stroke-width:4.25083017;stroke-miterlimit:4;stroke-dasharray:none"
         d="m 311.127,169.994 24.244,1.01 2.02,114.147 152.533,-6.061 4.041,-116.167 23.233,-2.525 -1.515,61.619 19.698,553.563 -28.284,-17.172 -17.173,-444.972 -153.038,5.555 -2.02,1.516 -18.183,338.906 -30.81,-14.647 29.295,-471.237 -4.041,-3.535 z" /></g><g
       style="stroke-width:4.25083017;stroke-miterlimit:4;stroke-dasharray:none"
       transform="matrix(1.64745,0,0,1.64745,-226.194,-617.843)"
       id="path3435"><path
         sodipodi:nodetypes="cccccccccccccccccccccccccccccccccccccc"
         inkscape:connector-curvature="0"
         id="path4482"
         style="fill:none;stroke:#000000;stroke-width:4.25083017;stroke-miterlimit:4;stroke-dasharray:none"
         d="m -23.234,505.87 189.909,82.327 107.076,50.508 77.782,37.88 68.69,35.356 52.023,29.294 103.468,58.27 33.929,19.286 38.571,21.785 27.5,15.715 16.072,10 1.071,5.357 21.429,12.143 19.085,9.472 13.132,8.081 61.9695,33.26623 -19.30664,9.09585 -12.14792,7.66671 3.22988,3.83805 -42.07254,22.37543 9.43491,-0.33312 -62.9168,-28.85584 -140.5109,-64.06257 85.3938,38.673 -154.67078,-66.52536 68.86348,27.54508 -218.08348,-84.01456 103.62686,38.60928 -128.19823,-47.70113 -4.01729,-1.75005 c -4.87831,-2.04235 -9.74802,-4.07477 -14.90719,-6.44189 l 5.72971,2.94027 -9.75901,-4.8117 -15.23418,-6.38684 L 246.477,767.499 91.429,709.505 -22.143,671.291 Z" /></g><g
       style="stroke-width:4.25083017;stroke-miterlimit:4;stroke-dasharray:none"
       transform="matrix(1.64745,0,0,1.64745,-226.194,-617.843)"
       id="path4279"><path
         inkscape:connector-curvature="0"
         id="path4485"
         style="fill:none;stroke:#000000;stroke-width:4.25083017;stroke-miterlimit:4;stroke-dasharray:none"
         d="m 311.632,189.439 -334.36,180.565 0.126,-0.252" /></g><g
       style="stroke-width:4.25083017;stroke-miterlimit:4;stroke-dasharray:none"
       transform="matrix(1.64745,0,0,1.64745,-226.194,-617.843)"
       id="path4281"><path
         inkscape:connector-curvature="0"
         id="path4488"
         style="fill:none;stroke:#000000;stroke-width:4.25083017;stroke-miterlimit:4;stroke-dasharray:none"
         d="M -22.411,396.559 313.393,194.148" /></g><g
       style="stroke-width:4.25083017;stroke-miterlimit:4;stroke-dasharray:none"
       transform="matrix(1.64745,0,0,1.64745,-226.194,-617.843)"
       id="path4283"><path
         inkscape:connector-curvature="0"
         id="path4491"
         style="fill:none;stroke:#000000;stroke-width:4.25083017;stroke-miterlimit:4;stroke-dasharray:none"
         d="M 312.679,200.13 -22.728,426.573" /></g><g
       style="stroke-width:4.25083017;stroke-miterlimit:4;stroke-dasharray:none"
       transform="matrix(1.64745,0,0,1.64745,-226.194,-617.843)"
       id="path4285"><path
         inkscape:connector-curvature="0"
         id="path4494"
         style="fill:none;stroke:#000000;stroke-width:4.25083017;stroke-miterlimit:4;stroke-dasharray:none"
         d="M -22.476,460.413 312.857,206.112" /></g><g
       style="stroke-width:4.25083017;stroke-miterlimit:4;stroke-dasharray:none"
       transform="matrix(1.64745,0,0,1.64745,-226.194,-617.843)"
       id="path4287"><path
         inkscape:connector-curvature="0"
         id="path4497"
         style="fill:none;stroke:#000000;stroke-width:4.25083017;stroke-miterlimit:4;stroke-dasharray:none"
         d="M 312.143,212.541 -22.728,500.44" /></g><g
       style="stroke-width:4.25083017;stroke-miterlimit:4;stroke-dasharray:none"
       transform="matrix(1.64745,0,0,1.64745,-226.194,-617.843)"
       id="path4289"><path
         inkscape:connector-curvature="0"
         id="path4500"
         style="fill:none;stroke:#000000;stroke-width:4.25083017;stroke-miterlimit:4;stroke-dasharray:none"
         d="M -21.718,514.456 493.965,181.106" /></g><g
       style="stroke-width:4.25083017;stroke-miterlimit:4;stroke-dasharray:none"
       transform="matrix(1.64745,0,0,1.64745,-226.194,-617.843)"
       id="path4291"><path
         inkscape:connector-curvature="0"
         id="path4503"
         style="fill:none;stroke:#000000;stroke-width:4.25083017;stroke-miterlimit:4;stroke-dasharray:none"
         d="M 493.333,187.735 18.929,534.862" /></g><g
       style="stroke-width:4.25083017;stroke-miterlimit:4;stroke-dasharray:none"
       transform="matrix(1.64745,0,0,1.64745,-226.194,-617.843)"
       id="path4293"><path
         inkscape:connector-curvature="0"
         id="path4506"
         style="fill:none;stroke:#000000;stroke-width:4.25083017;stroke-miterlimit:4;stroke-dasharray:none"
         d="M 312.011,218.481 -1.964,526.648" /></g><g
       style="stroke-width:4.25083017;stroke-miterlimit:4;stroke-dasharray:none"
       transform="matrix(1.64745,0,0,1.64745,-226.194,-617.843)"
       id="path4295"><path
         inkscape:connector-curvature="0"
         id="path4509"
         style="fill:none;stroke:#000000;stroke-width:4.25083017;stroke-miterlimit:4;stroke-dasharray:none"
         d="M 30,541.291 311.607,224.773" /></g><g
       style="stroke-width:4.25083017;stroke-miterlimit:4;stroke-dasharray:none"
       transform="matrix(1.64745,0,0,1.64745,-226.194,-617.843)"
       id="path4297"><path
         inkscape:connector-curvature="0"
         id="path4512"
         style="fill:none;stroke:#000000;stroke-width:4.25083017;stroke-miterlimit:4;stroke-dasharray:none"
         d="M 311.161,231.201 61.746,553.852" /></g><g
       style="stroke-width:4.25083017;stroke-miterlimit:4;stroke-dasharray:none"
       transform="matrix(1.64745,0,0,1.64745,-226.194,-617.843)"
       id="path4299"><path
         inkscape:connector-curvature="0"
         id="path4515"
         style="fill:none;stroke:#000000;stroke-width:4.25083017;stroke-miterlimit:4;stroke-dasharray:none"
         d="M 514.168,222.017 669.643,853.434" /></g><g
       style="stroke-width:4.25083017;stroke-miterlimit:4;stroke-dasharray:none"
       transform="matrix(1.64745,0,0,1.64745,-226.194,-617.843)"
       id="path4310"><path
         inkscape:connector-curvature="0"
         id="path4518"
         style="fill:none;stroke:#000000;stroke-width:4.25083017;stroke-miterlimit:4;stroke-dasharray:none"
         d="M 310.982,238.255 90.357,565.934" /></g><g
       style="stroke-width:4.25083017;stroke-miterlimit:4;stroke-dasharray:none"
       transform="matrix(1.64745,0,0,1.64745,-226.194,-617.843)"
       id="path4312"><path
         inkscape:connector-curvature="0"
         id="path4521"
         style="fill:none;stroke:#000000;stroke-width:4.25083017;stroke-miterlimit:4;stroke-dasharray:none"
         d="M 118.214,578.255 310.243,246.387" /></g><g
       style="stroke-width:4.25083017;stroke-miterlimit:4;stroke-dasharray:none"
       transform="matrix(1.64745,0,0,1.64745,-226.194,-617.843)"
       id="path4314"><path
         inkscape:connector-curvature="0"
         id="path4524"
         style="fill:none;stroke:#000000;stroke-width:4.25083017;stroke-miterlimit:4;stroke-dasharray:none"
         d="M 309.738,255.478 143.694,589.586" /></g><g
       style="stroke-width:4.25083017;stroke-miterlimit:4;stroke-dasharray:none"
       transform="matrix(1.64745,0,0,1.64745,-226.194,-617.843)"
       id="path4316"><path
         inkscape:connector-curvature="0"
         id="path4527"
         style="fill:none;stroke:#000000;stroke-width:4.25083017;stroke-miterlimit:4;stroke-dasharray:none"
         d="M 168.317,601.203 309.233,264.822" /></g><g
       style="stroke-width:4.25083017;stroke-miterlimit:4;stroke-dasharray:none"
       transform="matrix(1.64745,0,0,1.64745,-226.194,-617.843)"
       id="path4318"><path
         inkscape:connector-curvature="0"
         id="path4530"
         style="fill:none;stroke:#000000;stroke-width:4.25083017;stroke-miterlimit:4;stroke-dasharray:none"
         d="m 335.623,217.976 166.52,538.672" /></g><g
       style="stroke-width:4.25083017;stroke-miterlimit:4;stroke-dasharray:none"
       transform="matrix(1.64745,0,0,1.64745,-226.194,-617.843)"
       id="path4329"><path
         inkscape:connector-curvature="0"
         id="path4533"
         style="fill:none;stroke:#000000;stroke-width:4.25083017;stroke-miterlimit:4;stroke-dasharray:none"
         d="M 493.929,193.076 61.071,553.969" /></g><g
       style="stroke-width:4.25083017;stroke-miterlimit:4;stroke-dasharray:none"
       transform="matrix(1.64745,0,0,1.64745,-226.194,-617.843)"
       id="path4331"><path
         inkscape:connector-curvature="0"
         id="path4536"
         style="fill:none;stroke:#000000;stroke-width:4.25083017;stroke-miterlimit:4;stroke-dasharray:none"
         d="M 101.071,571.826 493.036,200.398" /></g><g
       style="stroke-width:4.25083017;stroke-miterlimit:4;stroke-dasharray:none"
       transform="matrix(1.64745,0,0,1.64745,-226.194,-617.843)"
       id="path4333"><path
         inkscape:connector-curvature="0"
         id="path4539"
         style="fill:none;stroke:#000000;stroke-width:4.25083017;stroke-miterlimit:4;stroke-dasharray:none"
         d="M 492.679,207.184 140.79,588.576" /></g><g
       style="stroke-width:4.25083017;stroke-miterlimit:4;stroke-dasharray:none"
       transform="matrix(1.64745,0,0,1.64745,-226.194,-617.843)"
       id="path4353"><path
         inkscape:connector-curvature="0"
         id="path4542"
         style="fill:none;stroke:#000000;stroke-width:4.25083017;stroke-miterlimit:4;stroke-dasharray:none"
         d="m 336.429,233.076 151.25,516.965" /></g><g
       style="stroke-width:4.25083017;stroke-miterlimit:4;stroke-dasharray:none"
       transform="matrix(1.64745,0,0,1.64745,-226.194,-617.843)"
       id="path4355"><path
         inkscape:connector-curvature="0"
         id="path4545"
         style="fill:none;stroke:#000000;stroke-width:4.25083017;stroke-miterlimit:4;stroke-dasharray:none"
         d="M 476.071,743.434 336.381,239.442" /></g><g
       style="stroke-width:4.25083017;stroke-miterlimit:4;stroke-dasharray:none"
       transform="matrix(1.64745,0,0,1.64745,-226.194,-617.843)"
       id="path4357"><path
         inkscape:connector-curvature="0"
         id="path4548"
         style="fill:none;stroke:#000000;stroke-width:4.25083017;stroke-miterlimit:4;stroke-dasharray:none"
         d="M 336.633,248.155 466.185,737.952" /></g><g
       style="stroke-width:4.25083017;stroke-miterlimit:4;stroke-dasharray:none"
       transform="matrix(1.64745,0,0,1.64745,-226.194,-617.843)"
       id="path4359"><path
         inkscape:connector-curvature="0"
         id="path4551"
         style="fill:none;stroke:#000000;stroke-width:4.25083017;stroke-miterlimit:4;stroke-dasharray:none"
         d="M 454.569,731.639 337.143,259.862" /></g><g
       style="stroke-width:4.25083017;stroke-miterlimit:4;stroke-dasharray:none"
       transform="matrix(1.64745,0,0,1.64745,-226.194,-617.843)"
       id="path4361"><path
         inkscape:connector-curvature="0"
         id="path4554"
         style="fill:none;stroke:#000000;stroke-width:4.25083017;stroke-miterlimit:4;stroke-dasharray:none"
         d="M 308.349,277.323 191.171,611.683" /></g><g
       style="stroke-width:4.25083017;stroke-miterlimit:4;stroke-dasharray:none"
       transform="matrix(1.64745,0,0,1.64745,-226.194,-617.843)"
       id="path4363"><path
         inkscape:connector-curvature="0"
         id="path4557"
         style="fill:none;stroke:#000000;stroke-width:4.25083017;stroke-miterlimit:4;stroke-dasharray:none"
         d="M 212.385,621.785 307.213,292.349" /></g><g
       style="stroke-width:4.25083017;stroke-miterlimit:4;stroke-dasharray:none"
       transform="matrix(1.64745,0,0,1.64745,-226.194,-617.843)"
       id="path4365"><path
         inkscape:connector-curvature="0"
         id="path4560"
         style="fill:none;stroke:#000000;stroke-width:4.25083017;stroke-miterlimit:4;stroke-dasharray:none"
         d="m 306.076,313.688 -71.79,317.424" /></g><g
       style="stroke-width:4.25083017;stroke-miterlimit:4;stroke-dasharray:none"
       transform="matrix(1.64745,0,0,1.64745,-226.194,-617.843)"
       id="path4367"><path
         inkscape:connector-curvature="0"
         id="path4563"
         style="fill:none;stroke:#000000;stroke-width:4.25083017;stroke-miterlimit:4;stroke-dasharray:none"
         d="M 253.214,640.041 303.571,351.648" /></g><g
       style="stroke-width:4.25083017;stroke-miterlimit:4;stroke-dasharray:none"
       transform="matrix(1.64745,0,0,1.64745,-226.194,-617.843)"
       id="path4369"><path
         inkscape:connector-curvature="0"
         id="path4566"
         style="fill:none;stroke:#000000;stroke-width:4.25083017;stroke-miterlimit:4;stroke-dasharray:none"
         d="M 298.214,436.469 272.615,648.554" /></g><g
       style="stroke-width:4.25083017;stroke-miterlimit:4;stroke-dasharray:none"
       transform="matrix(1.64745,0,0,1.64745,-226.194,-617.843)"
       id="path4389"><path
         inkscape:connector-curvature="0"
         id="path4569"
         style="fill:none;stroke:#000000;stroke-width:4.25083017;stroke-miterlimit:4;stroke-dasharray:none"
         d="M 492.679,213.166 178.039,604.991" /></g><g
       style="stroke-width:4.25083017;stroke-miterlimit:4;stroke-dasharray:none"
       transform="matrix(1.64745,0,0,1.64745,-226.194,-617.843)"
       id="path4391"><path
         inkscape:connector-curvature="0"
         id="path4572"
         style="fill:none;stroke:#000000;stroke-width:4.25083017;stroke-miterlimit:4;stroke-dasharray:none"
         d="M 213.016,621.027 492.071,220.312" /></g><g
       style="stroke-width:4.25083017;stroke-miterlimit:4;stroke-dasharray:none"
       transform="matrix(1.64745,0,0,1.64745,-226.194,-617.843)"
       id="path4393"><path
         inkscape:connector-curvature="0"
         id="path4575"
         style="fill:none;stroke:#000000;stroke-width:4.25083017;stroke-miterlimit:4;stroke-dasharray:none"
         d="M 491.692,227.51 244.457,636.179" /></g><g
       style="stroke-width:4.25083017;stroke-miterlimit:4;stroke-dasharray:none"
       transform="matrix(1.64745,0,0,1.64745,-226.194,-617.843)"
       id="path4395"><path
         inkscape:connector-curvature="0"
         id="path4578"
         style="fill:none;stroke:#000000;stroke-width:4.25083017;stroke-miterlimit:4;stroke-dasharray:none"
         d="M 273.499,649.943 491.25,236.469" /></g><g
       style="stroke-width:4.25083017;stroke-miterlimit:4;stroke-dasharray:none"
       transform="matrix(1.64745,0,0,1.64745,-226.194,-617.843)"
       id="path4397"><path
         inkscape:connector-curvature="0"
         id="path4581"
         style="fill:none;stroke:#000000;stroke-width:4.25083017;stroke-miterlimit:4;stroke-dasharray:none"
         d="M 490.893,245.487 302.036,663.201" /></g><g
       style="stroke-width:4.25083017;stroke-miterlimit:4;stroke-dasharray:none"
       transform="matrix(1.64745,0,0,1.64745,-226.194,-617.843)"
       id="path4399"><path
         inkscape:connector-curvature="0"
         id="path4584"
         style="fill:none;stroke:#000000;stroke-width:4.25083017;stroke-miterlimit:4;stroke-dasharray:none"
         d="M 328.3,676.333 490.536,255.398" /></g><g
       style="stroke-width:4.25083017;stroke-miterlimit:4;stroke-dasharray:none"
       transform="matrix(1.64745,0,0,1.64745,-226.194,-617.843)"
       id="path4401"><path
         inkscape:connector-curvature="0"
         id="path4587"
         style="fill:none;stroke:#000000;stroke-width:4.25083017;stroke-miterlimit:4;stroke-dasharray:none"
         d="M 489.821,268.076 353.393,687.184" /></g><g
       style="stroke-width:4.25083017;stroke-miterlimit:4;stroke-dasharray:none"
       transform="matrix(1.64745,0,0,1.64745,-226.194,-617.843)"
       id="path4403"><path
         inkscape:connector-curvature="0"
         id="path4590"
         style="fill:none;stroke:#000000;stroke-width:4.25083017;stroke-miterlimit:4;stroke-dasharray:none"
         d="M 376.429,698.969 490,279.326" /></g><g
       style="stroke-width:4.25083017;stroke-miterlimit:4;stroke-dasharray:none"
       transform="matrix(1.64745,0,0,1.64745,-226.194,-617.843)"
       id="path4405"><path
         inkscape:connector-curvature="0"
         id="path4593"
         style="fill:none;stroke:#000000;stroke-width:4.25083017;stroke-miterlimit:4;stroke-dasharray:none"
         d="M 490.179,293.612 398.393,710.934" /></g><g
       style="stroke-width:4.25083017;stroke-miterlimit:4;stroke-dasharray:none"
       transform="matrix(1.64745,0,0,1.64745,-226.194,-617.843)"
       id="path4407"><path
         inkscape:connector-curvature="0"
         id="path4596"
         style="fill:none;stroke:#000000;stroke-width:4.25083017;stroke-miterlimit:4;stroke-dasharray:none"
         d="M 418.929,719.326 489.671,313.688" /></g><g
       style="stroke-width:4.25083017;stroke-miterlimit:4;stroke-dasharray:none"
       transform="matrix(1.64745,0,0,1.64745,-226.194,-617.843)"
       id="path4409"><path
         inkscape:connector-curvature="0"
         id="path4599"
         style="fill:none;stroke:#000000;stroke-width:4.25083017;stroke-miterlimit:4;stroke-dasharray:none"
         d="M 490.555,334.649 437.857,729.862" /></g><g
       style="stroke-width:4.25083017;stroke-miterlimit:4;stroke-dasharray:none"
       transform="matrix(1.64745,0,0,1.64745,-226.194,-617.843)"
       id="path4411"><path
         inkscape:connector-curvature="0"
         id="path4602"
         style="fill:none;stroke:#000000;stroke-width:4.25083017;stroke-miterlimit:4;stroke-dasharray:none"
         d="M 457.5,737.719 492.197,361.67" /></g><g
       style="stroke-width:4.25083017;stroke-miterlimit:4;stroke-dasharray:none"
       transform="matrix(1.64745,0,0,1.64745,-226.194,-617.843)"
       id="path4413"><path
         inkscape:connector-curvature="0"
         id="path4605"
         style="fill:none;stroke:#000000;stroke-width:4.25083017;stroke-miterlimit:4;stroke-dasharray:none"
         d="m 492.954,409.653 -17.24,334.495" /></g><g
       style="stroke-width:4.25083017;stroke-miterlimit:4;stroke-dasharray:none"
       transform="matrix(1.64745,0,0,1.64745,-226.194,-617.843)"
       id="path4424"><path
         inkscape:connector-curvature="0"
         id="path4608"
         style="fill:none;stroke:#000000;stroke-width:4.25083017;stroke-miterlimit:4;stroke-dasharray:none"
         d="M 337.391,271.767 443.583,725.325" /></g><g
       style="stroke-width:4.25083017;stroke-miterlimit:4;stroke-dasharray:none"
       transform="matrix(1.64745,0,0,1.64745,-226.194,-617.843)"
       id="path4426"><path
         inkscape:connector-curvature="0"
         id="path4611"
         style="fill:none;stroke:#000000;stroke-width:4.25083017;stroke-miterlimit:4;stroke-dasharray:none"
         d="M 431.714,718.633 337.391,280.858" /></g><g
       style="stroke-width:4.25083017;stroke-miterlimit:4;stroke-dasharray:none"
       transform="matrix(1.64745,0,0,1.64745,-226.194,-617.843)"
       id="path4428"><path
         inkscape:connector-curvature="0"
         id="path4614"
         style="fill:none;stroke:#000000;stroke-width:4.25083017;stroke-miterlimit:4;stroke-dasharray:none"
         d="m 341.518,319.237 78.705,392.956" /></g><g
       style="stroke-width:4.25083017;stroke-miterlimit:4;stroke-dasharray:none"
       transform="matrix(1.64745,0,0,1.64745,-226.194,-617.843)"
       id="path4430"><path
         inkscape:connector-curvature="0"
         id="path4617"
         style="fill:none;stroke:#000000;stroke-width:4.25083017;stroke-miterlimit:4;stroke-dasharray:none"
         d="M 407.723,706.006 339.159,319.118" /></g><g
       style="stroke-width:4.25083017;stroke-miterlimit:4;stroke-dasharray:none"
       transform="matrix(1.64745,0,0,1.64745,-226.194,-617.843)"
       id="path4432"><path
         inkscape:connector-curvature="0"
         id="path4620"
         style="fill:none;stroke:#000000;stroke-width:4.25083017;stroke-miterlimit:4;stroke-dasharray:none"
         d="m 336.696,319.181 58.483,379.788" /></g><g
       style="stroke-width:4.25083017;stroke-miterlimit:4;stroke-dasharray:none"
       transform="matrix(1.64745,0,0,1.64745,-226.194,-617.843)"
       id="path4434"><path
         inkscape:connector-curvature="0"
         id="path4623"
         style="fill:none;stroke:#000000;stroke-width:4.25083017;stroke-miterlimit:4;stroke-dasharray:none"
         d="M 381.964,692.362 335,325.934" /></g><g
       style="stroke-width:4.25083017;stroke-miterlimit:4;stroke-dasharray:none"
       transform="matrix(1.64745,0,0,1.64745,-226.194,-617.843)"
       id="path4436"><path
         inkscape:connector-curvature="0"
         id="path4626"
         style="fill:none;stroke:#000000;stroke-width:4.25083017;stroke-miterlimit:4;stroke-dasharray:none"
         d="m 334.286,343.969 34.107,341.25" /></g><g
       style="stroke-width:4.25083017;stroke-miterlimit:4;stroke-dasharray:none"
       transform="matrix(1.64745,0,0,1.64745,-226.194,-617.843)"
       id="path4438"><path
         inkscape:connector-curvature="0"
         id="path4629"
         style="fill:none;stroke:#000000;stroke-width:4.25083017;stroke-miterlimit:4;stroke-dasharray:none"
         d="M 354.643,678.076 333.098,366.721" /></g><g
       style="stroke-width:4.25083017;stroke-miterlimit:4;stroke-dasharray:none"
       transform="matrix(1.64745,0,0,1.64745,-226.194,-617.843)"
       id="path4440"><path
         inkscape:connector-curvature="0"
         id="path4632"
         style="fill:none;stroke:#000000;stroke-width:4.25083017;stroke-miterlimit:4;stroke-dasharray:none"
         d="M 330.825,409.4 340,670.934" /></g><g
       style="stroke-width:4.25083017;stroke-miterlimit:4;stroke-dasharray:none"
       transform="matrix(1.64745,0,0,1.64745,-226.194,-617.843)"
       id="path4442"><path
         inkscape:connector-curvature="0"
         id="path4635"
         style="fill:none;stroke:#000000;stroke-width:4.25083017;stroke-miterlimit:4;stroke-dasharray:none"
         d="m 324.643,663.434 0.626,-157.312" /></g><g
       style="stroke-width:4.25083017;stroke-miterlimit:4;stroke-dasharray:none"
       transform="matrix(1.64745,0,0,1.64745,-226.194,-617.843)"
       id="path4444"><path
         inkscape:connector-curvature="0"
         id="path4638"
         style="fill:none;stroke:#000000;stroke-width:4.25083017;stroke-miterlimit:4;stroke-dasharray:none"
         d="m 496.607,507.362 -6.071,244.286" /></g><g
       style="stroke-width:4.25083017;stroke-miterlimit:4;stroke-dasharray:none"
       transform="matrix(1.64745,0,0,1.64745,-226.194,-617.843)"
       id="path4446"><path
         inkscape:connector-curvature="0"
         id="path4641"
         style="fill:none;stroke:#000000;stroke-width:4.25083017;stroke-miterlimit:4;stroke-dasharray:none"
         d="M 517.143,253.076 658.929,846.469" /></g><g
       style="stroke-width:4.25083017;stroke-miterlimit:4;stroke-dasharray:none"
       transform="matrix(1.64745,0,0,1.64745,-226.194,-617.843)"
       id="path4448"><path
         inkscape:connector-curvature="0"
         id="path4644"
         style="fill:none;stroke:#000000;stroke-width:4.25083017;stroke-miterlimit:4;stroke-dasharray:none"
         d="M 648.393,840.755 517.451,261.16" /></g><g
       style="stroke-width:4.25083017;stroke-miterlimit:4;stroke-dasharray:none"
       transform="matrix(1.64745,0,0,1.64745,-226.194,-617.843)"
       id="path4450"><path
         inkscape:connector-curvature="0"
         id="path4647"
         style="fill:none;stroke:#000000;stroke-width:4.25083017;stroke-miterlimit:4;stroke-dasharray:none"
         d="M 639.3,836.063 517.072,268.863" /></g><g
       style="stroke-width:4.25083017;stroke-miterlimit:4;stroke-dasharray:none"
       transform="matrix(1.64745,0,0,1.64745,-226.194,-617.843)"
       id="path4452"><path
         inkscape:connector-curvature="0"
         id="path4650"
         style="fill:none;stroke:#000000;stroke-width:4.25083017;stroke-miterlimit:4;stroke-dasharray:none"
         d="M 518.082,280.479 629.578,830.002" /></g><g
       style="stroke-width:4.25083017;stroke-miterlimit:4;stroke-dasharray:none"
       transform="matrix(1.64745,0,0,1.64745,-226.194,-617.843)"
       id="path4454"><path
         inkscape:connector-curvature="0"
         id="path4653"
         style="fill:none;stroke:#000000;stroke-width:4.25083017;stroke-miterlimit:4;stroke-dasharray:none"
         d="M 619.224,824.068 517.956,289.697" /></g><g
       style="stroke-width:4.25083017;stroke-miterlimit:4;stroke-dasharray:none"
       transform="matrix(1.64745,0,0,1.64745,-226.194,-617.843)"
       id="path4456"><path
         inkscape:connector-curvature="0"
         id="path4656"
         style="fill:none;stroke:#000000;stroke-width:4.25083017;stroke-miterlimit:4;stroke-dasharray:none"
         d="m 519.092,305.354 90.015,513.437" /></g><g
       style="stroke-width:4.25083017;stroke-miterlimit:4;stroke-dasharray:none"
       transform="matrix(1.64745,0,0,1.64745,-226.194,-617.843)"
       id="path4458"><path
         inkscape:connector-curvature="0"
         id="path4659"
         style="fill:none;stroke:#000000;stroke-width:4.25083017;stroke-miterlimit:4;stroke-dasharray:none"
         d="M 598.036,812.005 519.092,318.486" /></g><g
       style="stroke-width:4.25083017;stroke-miterlimit:4;stroke-dasharray:none"
       transform="matrix(1.64745,0,0,1.64745,-226.194,-617.843)"
       id="path4460"><path
         inkscape:connector-curvature="0"
         id="path4662"
         style="fill:none;stroke:#000000;stroke-width:4.25083017;stroke-miterlimit:4;stroke-dasharray:none"
         d="m 520.607,338.311 66.418,467.7" /></g><g
       style="stroke-width:4.25083017;stroke-miterlimit:4;stroke-dasharray:none"
       transform="matrix(1.64745,0,0,1.64745,-226.194,-617.843)"
       id="path4462"><path
         inkscape:connector-curvature="0"
         id="path4665"
         style="fill:none;stroke:#000000;stroke-width:4.25083017;stroke-miterlimit:4;stroke-dasharray:none"
         d="M 574.651,798.94 520.893,366.559" /></g><g
       style="stroke-width:4.25083017;stroke-miterlimit:4;stroke-dasharray:none"
       transform="matrix(1.64745,0,0,1.64745,-226.194,-617.843)"
       id="path4464"><path
         inkscape:connector-curvature="0"
         id="path4668"
         style="fill:none;stroke:#000000;stroke-width:4.25083017;stroke-miterlimit:4;stroke-dasharray:none"
         d="m 523.393,416.291 39.009,374.947" /></g><g
       style="stroke-width:4.25083017;stroke-miterlimit:4;stroke-dasharray:none"
       transform="matrix(1.64745,0,0,1.64745,-226.194,-617.843)"
       id="path4466"><path
         inkscape:connector-curvature="0"
         id="path4671"
         style="fill:none;stroke:#000000;stroke-width:4.25083017;stroke-miterlimit:4;stroke-dasharray:none"
         d="m 549.523,784.924 -23.234,-287.136 -0.252,0" /></g><g
       style="stroke-width:4.25083017;stroke-miterlimit:4;stroke-dasharray:none"
       transform="matrix(1.64745,0,0,1.64745,-226.194,-617.843)"
       id="path4477"><path
         inkscape:connector-curvature="0"
         id="path4674"
         style="fill:none;stroke:#000000;stroke-width:4.25083017;stroke-miterlimit:4;stroke-dasharray:none"
         d="m -22.728,516.476 245.214,107.582 74.499,34.85 122.733,60.609 85.358,47.225 188.141,104.55" /></g><g
       style="stroke-width:4.25083017;stroke-miterlimit:4;stroke-dasharray:none"
       transform="matrix(1.64745,0,0,1.64745,-226.194,-617.843)"
       id="g4676" /><g
       style="stroke-width:4.25083017;stroke-miterlimit:4;stroke-dasharray:none"
       transform="matrix(1.64745,0,0,1.64745,-226.194,-617.843)"
       id="path4481"><path
         inkscape:connector-curvature="0"
         id="path4681"
         style="fill:none;stroke:#000000;stroke-width:4.25083017;stroke-miterlimit:4;stroke-dasharray:none"
         d="m 427.547,838.21 83.085,32.577" /></g><g
       style="stroke-width:4.25083017;stroke-miterlimit:4;stroke-dasharray:none"
       transform="matrix(1.64745,0,0,1.64745,-226.194,-617.843)"
       id="path4505"><path
         inkscape:connector-curvature="0"
         id="path4684"
         style="fill:none;stroke:#000000;stroke-width:4.25083017;stroke-miterlimit:4;stroke-dasharray:none"
         d="m 542.452,884.677 140.405,62.685" /></g><g
       style="stroke-width:4.25083017;stroke-miterlimit:4;stroke-dasharray:none"
       transform="matrix(1.64745,0,0,1.64745,-226.194,-617.843)"
       id="path4526" /><g
       style="stroke-width:4.25083017;stroke-miterlimit:4;stroke-dasharray:none"
       transform="matrix(1.64745,0,0,1.64745,-226.194,-617.843)"
       id="path4528" /><g
       style="stroke-width:4.25083017;stroke-miterlimit:4;stroke-dasharray:none"
       transform="matrix(1.64745,0,0,1.64745,-226.194,-617.843)"
       id="g4692" /></g><path
     style="fill:none;fill-rule:evenodd;stroke:#000000;stroke-width:1.5;stroke-linecap:butt;stroke-linejoin:miter;stroke-miterlimit:1.41420996;stroke-dasharray:none;stroke-opacity:1"
     d="m 309.97464,101.97039 26.56585,0 0,202.82006 -27.07673,0 z"
     id="path4924"
     inkscape:connector-curvature="0" /><path
     style="fill:#231f20"
     inkscape:connector-curvature="0"
     id="path5846"
     d="m 143.78194,347.61823 c 0,-0.7 0.5,-1.2 1.2,-1.2 0.7,0 1.2,0.5 1.2,1.2 l 0,3.7 4.5,-4.5 c 0.3,-0.3 0.6,-0.5 1,-0.5 0.7,0 1.1,0.5 1.1,1.1 0,0.4 -0.2,0.7 -0.4,0.9 l -3.2,2.9 3.4,4.3 c 0.2,0.2 0.3,0.5 0.3,0.9 0,0.7 -0.5,1.2 -1.2,1.2 -0.5,0 -0.8,-0.2 -1,-0.6 l -3.2,-4.2 -1.3,1.5 0,2.2 c 0,0.7 -0.5,1.2 -1.2,1.2 -0.7,0 -1.2,-0.5 -1.2,-1.2 l 0,-8.9 z" /><path
     style="fill:#231f20"
     inkscape:connector-curvature="0"
     id="path5848"
     d="m 215.98194,347.61823 c 0,-0.7 0.5,-1.2 1.2,-1.2 0.7,0 1.2,0.5 1.2,1.2 l 0,7.8 4.6,0 c 0.6,0 1.1,0.5 1.1,1.1 0,0.6 -0.5,1.1 -1.1,1.1 l -5.8,0 c -0.7,0 -1.2,-0.5 -1.2,-1.2 l 0,-8.8 z" /><path
     style="fill:#231f20"
     inkscape:connector-curvature="0"
     id="path5854"
     d="m 178.28194,352.11823 0,0 c 0,-3.2 2.5,-5.8 6,-5.8 3.5,0 5.9,2.6 5.9,5.8 l 0,0 c 0,3.2 -2.5,5.8 -6,5.8 -3.4,-0.1 -5.9,-2.6 -5.9,-5.8 z m 9.3,0 0,0 c 0,-2 -1.4,-3.6 -3.4,-3.6 -2,0 -3.4,1.6 -3.4,3.5 l 0,0 c 0,1.9 1.4,3.5 3.4,3.5 2,0.1 3.4,-1.5 3.4,-3.4 z" /></svg>